<?xml version="1.0" encoding="UTF-8" standalone="no"?>
<!DOCTYPE svg PUBLIC "-//W3C//DTD SVG 20010904//EN"
              "http://www.w3.org/TR/2001/REC-SVG-20010904/DTD/svg10.dtd">

<svg xmlns="http://www.w3.org/2000/svg"
     width="3.34722in" height="3.30556in"
     viewBox="0 0 241 238">
  <path id="Selection"
        fill="none" stroke="black" stroke-width="1"
        d="M 2.00,0.00
           C 2.00,0.00 1.00,8.00 1.00,8.00
             1.00,8.00 5.00,6.00 5.00,6.00
             5.00,6.00 10.57,31.00 10.57,31.00
             10.57,31.00 11.51,49.00 11.51,49.00
             12.56,55.86 15.13,62.41 17.17,69.00
             17.17,69.00 18.80,75.96 18.80,75.96
             21.43,84.87 26.74,92.36 32.37,99.59
             32.37,99.59 39.27,108.32 39.27,108.32
             44.29,114.69 46.54,119.91 56.00,120.80
             59.45,121.13 64.50,119.75 68.00,119.00
             71.16,130.35 63.02,144.95 63.00,159.00
             62.98,173.73 62.66,182.00 68.79,196.00
             70.08,198.96 73.21,205.12 75.18,207.51
             75.18,207.51 80.72,212.22 80.72,212.22
             80.72,212.22 90.53,224.23 90.53,224.23
             91.89,225.24 92.10,224.80 93.00,225.00
             95.06,233.61 103.57,237.95 112.00,238.00
             112.00,238.00 128.00,238.00 128.00,238.00
             137.16,237.89 142.39,233.01 150.00,228.50
             150.00,228.50 160.58,223.30 160.58,223.30
             171.13,217.63 179.06,211.04 185.66,201.00
             193.60,188.90 198.32,173.55 197.56,159.00
             197.56,159.00 196.49,146.00 196.49,146.00
             195.60,141.56 193.77,134.50 195.74,130.15
             198.55,123.91 207.07,129.85 215.98,124.64
             220.11,122.22 221.90,118.61 225.00,115.17
             233.90,105.29 240.98,97.91 241.00,84.00
             241.00,84.00 241.00,3.00 241.00,3.00
             229.16,0.99 227.56,6.27 218.00,10.83
             206.23,16.45 195.49,18.91 185.00,27.46
             178.98,32.37 163.47,49.53 158.91,51.47
             152.43,54.22 147.54,47.09 135.00,46.18
             135.00,46.18 111.00,48.16 111.00,48.16
             106.02,49.50 99.17,53.29 94.18,50.91
             90.43,49.12 88.94,44.89 85.76,41.88
             85.76,41.88 68.00,27.62 68.00,27.62
             60.12,21.30 50.50,17.70 41.00,14.59
             41.00,14.59 34.00,12.30 34.00,12.30
             34.00,12.30 14.00,0.58 14.00,0.58
             11.48,-0.27 4.96,0.00 2.00,0.00 Z" />
</svg>
