<svg version="1.1" id="Layer_1" xmlns="http://www.w3.org/2000/svg" xmlns:xlink="http://www.w3.org/1999/xlink" x="0px" y="0px"
	 viewBox="0 0 950 950" style="enable-background:new 0 0 950 950;" xml:space="preserve">
<style type="text/css">
	.st0{fill:none;stroke:#B3B3B3;stroke-width:60;stroke-miterlimit:10;}
	.st1{fill:#B3B3B3;stroke:#B3B3B3;stroke-miterlimit:10;}
	.st2{fill:#B3B3B3;stroke:#B3B3B3;stroke-width:10;stroke-miterlimit:10;}
</style>
<ellipse class="st0" cx="476.5" cy="489.91" rx="443.5" ry="340.26"/>
<g>
	<path class="st0" d="M441.74,829.14V890c0,16.5-13.5,30-30,30H267.51c-16.5,0-30-13.5-30-30V776.6"/>
</g>
<g>
	<path class="st0" d="M710.53,778.99V890c0,16.5-13.5,30-30,30H536.32c-16.5,0-30-13.5-30-30v-60.59"/>
</g>
<ellipse class="st0" cx="471.97" cy="587.74" rx="173.22" ry="133.21"/>
<ellipse class="st1" cx="414.97" cy="593.58" rx="28.91" ry="28.92"/>
<ellipse class="st1" cx="533.61" cy="593.93" rx="28.91" ry="28.92"/>
<path class="st0" d="M266.42,34.83c8.45-1.88,17.23-2.87,26.25-2.87c66.53,0,120.45,53.95,120.45,120.51c0,0.21,0,0.43,0,0.65"/>
<path class="st0" d="M536.92,152.79c0-0.11,0-0.22,0-0.33c0-66.56,56.08-120.51,125.27-120.51c7.1,0,14.06,0.57,20.83,1.66"/>
<polyline class="st1" points="732.22,218.57 732.22,56.33 732.22,5 674.41,5 674.41,30.61 674.41,189.86 "/>
<polyline class="st1" points="285.81,186.26 285.81,30.9 285.81,5 227.99,5 227.99,62.24 227.99,214.81 "/>
<polygon class="st2" points="333.99,312.4 295.73,350.68 333.99,388.95 333.99,398.88 324.07,398.88 285.81,360.6 247.55,398.88 
	237.63,398.88 237.63,388.95 275.89,350.68 237.63,312.4 237.63,302.47 247.55,302.47 285.81,340.75 324.07,302.47 333.99,302.47 
	"/>
<polygon class="st2" points="731.2,312.4 692.94,350.68 731.2,388.95 731.2,398.88 721.28,398.88 683.02,360.6 644.76,398.88 
	634.84,398.88 634.84,388.95 673.1,350.68 634.84,312.4 634.84,302.47 644.76,302.47 683.02,340.75 721.28,302.47 731.2,302.47 "/>
</svg>
