<?xml version="1.0" encoding="utf-8"?>
<!-- Generator: Adobe Illustrator 25.0.0, SVG Export Plug-In . SVG Version: 6.00 Build 0)  -->
<svg version="1.1" id="Layer_1" xmlns="http://www.w3.org/2000/svg" xmlns:xlink="http://www.w3.org/1999/xlink" x="0px" y="0px"
	 viewBox="0 0 1920 1080" style="enable-background:new 0 0 1920 1080;" xml:space="preserve">
<style type="text/css">
	.st0{fill:#FFFFFF;}
</style>
<g>
	<path class="st0" d="M1045,625c-56.67,0-113.33,0-170,0c0-56.67,0-113.33,0-170c56.67,0,113.33,0,170,0
		C1045,511.67,1045,568.33,1045,625z M955.47,570.98c-0.02,0.41-0.04,0.83-0.06,1.24c2.98,0,6.35,0.91,8.89-0.15
		c14.26-5.99,19.37-17.43,15.21-32.5c-0.79-2.85-1.01-5.87-1.3-7.66c3.86-1.05,7.62-0.91,9.16-2.69
		c8.72-10.07,4.54-22.11,4.82-33.35c-12.73,4.36-18.41,14.5-22.85,25.79c0.6,1.48,1.2,2.95,2.06,5.05
		c-10.49,1.88-4.33,9.98-6.06,15.25c1.39,0.78,2.77,1.56,5.62,3.16c-3.27,1.29-5.18,2.32-7.22,2.8c-5.05,1.18-10.04,2.2-13.12,7.11
		c-3.34,5.33-0.61,11.38,5.53,12.16c1.41,0.18,2.7,1.2,4.05,1.84c-0.16,0.4-0.32,0.8-0.48,1.2
		C958.3,570.49,956.89,570.74,955.47,570.98z M916.58,592.28c-0.3,0.29-0.59,0.58-0.89,0.86c-1.56-0.41-3.09-1.03-4.67-1.17
		c-1.37-0.12-2.79,0.31-4.18,0.49c0.36,1.34,0.34,3.02,1.16,3.96c2.06,2.35,4.18,5.32,6.89,6.28c3.14,1.11,7.51,1.48,10.31,0.09
		c3.44-1.71,0.54-5.31-0.36-7.97c-0.79-2.32-1.96-4.51-2.8-6.41c3.25,0.21,6.36,1.37,8.32,0.34c4.21-2.2,5.28-6.57,4.57-11.18
		c-0.38-2.46-1.22-4.86-1.55-7.32c-0.44-3.31-0.57-6.65-0.89-10.67c-5.15,2.81-9.57,4.79-13.44,7.54c-1.72,1.22-2.44,3.95-3.39,6.09
		c-0.59,1.32-0.78,2.82-1.12,4.25C913.33,582.57,910.25,587.89,916.58,592.28z M1041.94,530.76c-0.66-0.19-1.33-0.38-1.99-0.57
		c-5.36,4.91-12.28,8.41-13.09,17.13c-0.28,3.03-1.54,6.54-3.56,8.7c-4.27,4.6-2.77,8.98-0.73,14.08c-1.78,0.81-3.69,1.41-5.29,2.47
		c-2.56,1.7-5.47,3.3-7.23,5.68c-2.97,4.03-0.82,7.5,4.31,7.81c0.25,0.02,0.48,0.4,0.94,0.81c-0.57,0.72-1.13,1.44-2.22,2.82
		c1.96-0.11,3.38,0.24,4.09-0.31c3.01-2.31,5.97-4.74,8.66-7.41c6.86-6.81,3.76-15.49,4.32-22.99c2.73-1.26,5.76-2.73,6.4-4.91
		C1038.79,546.45,1040.21,538.56,1041.94,530.76z M962.84,620.22c2.45,0.2,4.35,0.96,5.52,0.34c4.67-2.47,9.38-5.02,13.58-8.2
		c6.22-4.71,3.35-11.79,3.28-17.98c9.45,0.13,14.33-6.39,13.11-21.79c-5.1,3.65-10.09,6.6-14.27,10.43
		c-2.95,2.7-4.46,6.94-7.26,9.87c-3.28,3.43-2.18,6.56-0.4,10.5c-2.62,0.63-5.24,0.97-7.64,1.91c-2.72,1.06-5.5,2.34-7.74,4.16
		c-1.11,0.9-1.8,3.48-1.33,4.81c0.44,1.22,2.68,1.85,4.19,2.62c0.62,0.32,1.41,0.3,3.08,0.6
		C965.34,618.57,964.53,619.11,962.84,620.22z M958.85,526.24c0.09-0.7,0.18-1.4,0.27-2.1c-2.59-1.26-5.18-2.52-7.76-3.78
		c-3.24-1.59-6.92-2.65-9.62-4.88c-7.14-5.91-15.96-6.38-25.06-9.34c1.39,2.93,2.94,4.8,3.11,6.79c0.79,9.22,5.26,16.15,12.03,22.16
		c2.34,2.08,3.97,2.26,6.57,1.06c1.45-0.67,3.31-0.46,5.24-0.68C940.4,521.63,951.73,526.83,958.85,526.24z M939.73,500.77
		c6.96,1.61,10.29-3.53,14.12-6.74c6.94-5.84,2.84-12.88,0.03-19.43c9.66-0.94,11.14-5.09,6.83-16.52
		c-11.96,5.29-18.09,17.18-12.46,25.04c-1.84,0.55-3.61,0.9-5.23,1.6c-2.53,1.11-5.28,2.09-7.3,3.85c-1.21,1.05-2,3.73-1.54,5.24
		c0.43,1.4,2.74,3.08,4.27,3.13C942.21,497.05,941.07,498.6,939.73,500.77z M913.34,489.48c-2.11,1.74-4.56,2.94-5.78,4.9
		c-3.75,6.05-8.29,12.07-10.01,18.75c-1.09,4.22-2.08,6.05-5.94,7.44c-7.43,2.68-10.16,12.05-5.25,17.48
		c-0.73,1.26-1.48,2.58-2.24,3.9c0.25,0.45,0.49,0.89,0.74,1.34c1.76-0.67,3.78-1.01,5.23-2.1c2.37-1.79,4.4-4.05,6.53-6.16
		c5.57-5.53,8.74-12.04,8.4-20.08c-0.17-3.91-2.41-8.98,4.61-9.56c0.45-0.04,0.82-0.98,1.24-1.5
		C914.28,499.71,914.67,494.98,913.34,489.48z M1021.33,515.44c-0.14,0.69-0.27,1.39-0.41,2.08c1.9-0.47,4.44-0.33,5.58-1.53
		c2.97-3.11,5.82-6.72,3.83-11.56c-1.56-3.79-3.39-7.47-5.23-11.48c3.7,0.64,4.54-1.43,3.79-4c-0.88-3-2.22-5.91-3.74-8.65
		c-0.4-0.72-2.33-1.14-3.3-0.85c-1.01,0.29-2.32,1.53-2.46,2.5c-0.82,5.82-3.06,11.95,4.02,17.04c-2.84,0.17-4.28,0.26-5.73,0.33
		c-4.7,0.25-7.15,3.65-4.91,7.74c1.19,2.18,3.99,3.46,5.96,5.26C1019.71,513.24,1020.47,514.4,1021.33,515.44z M988.74,541.5
		c-0.26,0.46-0.52,0.93-0.77,1.39c0.88,3.64,1.16,7.56,2.77,10.84c1.99,4.05,4.77,7.86,7.89,11.13c0.87,0.91,4.13-0.48,6.3-0.79
		c0.27-0.04,0.55,0.04,1.08,0.08c-2.03-9.13,5.46-7.64,10.85-8.54c-0.03-0.6-0.06-1.2-0.09-1.8
		C1007.43,549.7,998.09,545.6,988.74,541.5z M945.1,581.42c0.09,6.63,0.05,11.96,5.05,15.63c2.33,1.71,7.55,1.3,8.68-1.35
		c1.48-3.51,4.03-3.98,7.24-3.82c1.65,0.08,3.32-0.17,4.98-0.27c0.05-0.49,0.1-0.97,0.15-1.46
		C962.74,587.32,954.27,584.49,945.1,581.42z M1012.53,485.45c0.2-0.34,0.39-0.68,0.59-1.02c-9.77-6.72-19.55-13.43-29.98-20.61
		c2.07,9.43,6.85,15.63,12.92,21.05c2.98,2.66,5.49,2.58,8.23-0.35c0.66-0.71,2.23-1.03,3.26-0.85
		C1009.26,483.98,1010.88,484.83,1012.53,485.45z M919.21,465.9c0.39,2.97,0.44,4.96,0.93,6.83c1.32,5.03,5.91,7.42,9.53,5.12
		c3.42-2.17,6.87-4.31,10.53-6.6C933.73,469.6,926.76,467.82,919.21,465.9z M883.51,562.4c-0.43,0.45-0.85,0.9-1.28,1.35
		c3.59,4.65,7.14,9.32,10.77,13.94c2.52,3.21,5.04,4.79,6.79-0.77c2.14,0.62,3.96,1.15,5.78,1.67c0.15-0.32,0.3-0.64,0.45-0.96
		C898.51,572.56,891.01,567.48,883.51,562.4z M896.43,505.05c-4.63,0-8.7-1.16-10.99,0.37c-1.82,1.22-1.47,5.7-2.09,8.73
		c0.48,0.15,0.95,0.31,1.43,0.46C888.19,511.81,891.6,509.01,896.43,505.05z"/>
	<path d="M955.47,570.98c1.41-0.25,2.83-0.5,4.24-0.74c0.16-0.4,0.32-0.8,0.48-1.2c-1.35-0.63-2.65-1.66-4.05-1.84
		c-6.14-0.78-8.88-6.83-5.53-12.16c3.09-4.92,8.07-5.93,13.12-7.11c2.04-0.48,3.95-1.51,7.22-2.8c-2.85-1.6-4.23-2.38-5.62-3.16
		c1.72-5.28-4.44-13.37,6.06-15.25c-0.85-2.09-1.46-3.57-2.06-5.05c4.44-11.28,10.12-21.43,22.85-25.79
		c-0.28,11.24,3.9,23.28-4.82,33.35c-1.54,1.78-5.3,1.64-9.16,2.69c0.29,1.79,0.51,4.8,1.3,7.66c4.16,15.06-0.95,26.51-15.21,32.5
		c-2.54,1.07-5.9,0.15-8.89,0.15C955.43,571.81,955.45,571.4,955.47,570.98z"/>
	<path d="M916.58,592.28c-6.32-4.39-3.25-9.7-2.04-14.83c0.34-1.43,0.53-2.93,1.12-4.25c0.95-2.14,1.68-4.87,3.39-6.09
		c3.87-2.75,8.29-4.72,13.44-7.54c0.32,4.02,0.45,7.36,0.89,10.67c0.32,2.47,1.17,4.86,1.55,7.32c0.71,4.61-0.36,8.98-4.57,11.18
		c-1.96,1.03-5.07-0.13-8.32-0.34c0.84,1.89,2.01,4.09,2.8,6.41c0.9,2.66,3.81,6.27,0.36,7.97c-2.8,1.39-7.17,1.02-10.31-0.09
		c-2.72-0.96-4.83-3.92-6.89-6.28c-0.82-0.94-0.8-2.62-1.16-3.96c1.4-0.19,2.81-0.61,4.18-0.49c1.58,0.14,3.12,0.76,4.67,1.17
		C915.99,592.85,916.28,592.57,916.58,592.28z"/>
	<path d="M1041.94,530.76c-1.73,7.8-3.15,15.68-5.39,23.33c-0.64,2.18-3.66,3.65-6.4,4.91c-0.56,7.5,2.54,16.17-4.32,22.99
		c-2.69,2.67-5.65,5.1-8.66,7.41c-0.72,0.55-2.13,0.2-4.09,0.31c1.09-1.39,1.66-2.1,2.22-2.82c-0.47-0.42-0.69-0.8-0.94-0.81
		c-5.13-0.31-7.29-3.79-4.31-7.81c1.76-2.38,4.67-3.98,7.23-5.68c1.6-1.06,3.51-1.66,5.29-2.47c-2.04-5.1-3.54-9.48,0.73-14.08
		c2.02-2.17,3.28-5.68,3.56-8.7c0.81-8.72,7.73-12.22,13.09-17.13C1040.61,530.39,1041.27,530.57,1041.94,530.76z"/>
	<path d="M962.84,620.22c1.69-1.11,2.5-1.65,4.13-2.72c-1.66-0.31-2.45-0.29-3.08-0.6c-1.51-0.76-3.75-1.39-4.19-2.62
		c-0.48-1.33,0.22-3.92,1.33-4.81c2.24-1.82,5.02-3.09,7.74-4.16c2.4-0.94,5.02-1.28,7.64-1.91c-1.78-3.94-2.89-7.07,0.4-10.5
		c2.8-2.93,4.31-7.17,7.26-9.87c4.18-3.83,9.16-6.77,14.27-10.43c1.22,15.39-3.66,21.91-13.11,21.79
		c0.07,6.19,2.94,13.27-3.28,17.98c-4.2,3.18-8.91,5.73-13.58,8.2C967.19,621.18,965.29,620.42,962.84,620.22z"/>
	<path d="M958.85,526.24c-7.12,0.59-18.45-4.61-15.22,9.22c-1.93,0.22-3.78,0.01-5.24,0.68c-2.6,1.2-4.23,1.01-6.57-1.06
		c-6.77-6.01-11.24-12.94-12.03-22.16c-0.17-1.99-1.72-3.86-3.11-6.79c9.09,2.96,17.91,3.43,25.06,9.34c2.7,2.24,6.38,3.3,9.62,4.88
		c2.58,1.27,5.17,2.52,7.76,3.78C959.03,524.83,958.94,525.54,958.85,526.24z"/>
	<path d="M939.73,500.77c1.34-2.17,2.49-3.72-1.28-3.83c-1.53-0.05-3.84-1.73-4.27-3.13c-0.46-1.51,0.33-4.18,1.54-5.24
		c2.02-1.76,4.77-2.74,7.3-3.85c1.61-0.71,3.38-1.05,5.23-1.6c-5.64-7.86,0.5-19.74,12.46-25.04c4.31,11.43,2.83,15.58-6.83,16.52
		c2.81,6.55,6.91,13.59-0.03,19.43C950.02,497.24,946.69,502.38,939.73,500.77z"/>
	<path d="M913.34,489.48c1.32,5.5,0.93,10.23-2.49,14.42c-0.42,0.51-0.79,1.46-1.24,1.5c-7.02,0.58-4.78,5.65-4.61,9.56
		c0.34,8.04-2.83,14.55-8.4,20.08c-2.13,2.11-4.15,4.37-6.53,6.16c-1.45,1.09-3.46,1.42-5.23,2.1c-0.25-0.45-0.49-0.89-0.74-1.34
		c0.76-1.32,1.51-2.63,2.24-3.9c-4.91-5.42-2.18-14.8,5.25-17.48c3.86-1.39,4.84-3.22,5.94-7.44c1.73-6.68,6.27-12.7,10.01-18.75
		C908.78,492.42,911.23,491.22,913.34,489.48z"/>
	<path d="M1021.33,515.44c-0.86-1.04-1.62-2.2-2.6-3.1c-1.97-1.8-4.77-3.07-5.96-5.26c-2.23-4.09,0.21-7.5,4.91-7.74
		c1.44-0.08,2.88-0.17,5.73-0.33c-7.08-5.09-4.85-11.22-4.02-17.04c0.14-0.97,1.45-2.21,2.46-2.5c0.98-0.29,2.9,0.13,3.3,0.85
		c1.52,2.74,2.87,5.65,3.74,8.65c0.75,2.57-0.08,4.63-3.79,4c1.84,4.01,3.68,7.69,5.23,11.48c1.98,4.83-0.86,8.45-3.83,11.56
		c-1.14,1.19-3.68,1.06-5.58,1.53C1021.05,516.83,1021.19,516.14,1021.33,515.44z"/>
	<path d="M988.74,541.5c9.34,4.1,18.69,8.2,28.03,12.3c0.03,0.6,0.06,1.2,0.09,1.8c-5.39,0.91-12.87-0.58-10.85,8.54
		c-0.53-0.04-0.81-0.12-1.08-0.08c-2.17,0.31-5.43,1.7-6.3,0.79c-3.12-3.27-5.9-7.07-7.89-11.13c-1.61-3.28-1.9-7.2-2.77-10.84
		C988.23,542.43,988.49,541.96,988.74,541.5z"/>
	<path d="M945.1,581.42c9.17,3.07,17.64,5.9,26.11,8.73c-0.05,0.49-0.1,0.97-0.15,1.46c-1.66,0.1-3.33,0.35-4.98,0.27
		c-3.21-0.16-5.76,0.31-7.24,3.82c-1.12,2.65-6.35,3.06-8.68,1.35C945.15,593.38,945.19,588.05,945.1,581.42z"/>
	<path d="M1012.53,485.45c-1.66-0.62-3.27-1.47-4.98-1.77c-1.03-0.18-2.6,0.14-3.26,0.85c-2.73,2.93-5.24,3.01-8.23,0.35
		c-6.07-5.42-10.86-11.62-12.92-21.05c10.43,7.17,20.21,13.89,29.98,20.61C1012.93,484.77,1012.73,485.11,1012.53,485.45z"/>
	<path d="M919.21,465.9c7.55,1.92,14.52,3.7,20.99,5.35c-3.66,2.3-7.11,4.43-10.53,6.6c-3.62,2.29-8.21-0.09-9.53-5.12
		C919.65,470.85,919.6,468.87,919.21,465.9z"/>
	<path d="M883.51,562.4c7.5,5.08,15.01,10.15,22.51,15.23c-0.15,0.32-0.3,0.64-0.45,0.96c-1.82-0.53-3.64-1.05-5.78-1.67
		c-1.75,5.56-4.27,3.99-6.79,0.77c-3.63-4.62-7.18-9.29-10.77-13.94C882.65,563.31,883.08,562.85,883.51,562.4z"/>
	<path d="M896.43,505.05c-4.83,3.96-8.24,6.76-11.65,9.56c-0.48-0.15-0.95-0.31-1.43-0.46c0.62-3.03,0.27-7.51,2.09-8.73
		C887.73,503.89,891.8,505.05,896.43,505.05z"/>
</g>
</svg>
